<svg xmlns="http://www.w3.org/2000/svg" viewBox="0 0 40 40"><circle cx="21" cy="19.5" r="13" fill="#8b3a78"/><path d="M13 12.5c3-1.8 6.4-1.4 8 .6 1.3 1.6-.3 3.2-2.1 3.5-1.6.3-2.4 1.7-1.5 3.2.8 1.4-.6 2.6-2.2 2.1-2.3-.7-3.4-3.4-3.3-5.8 0-1.4.4-2.6 1.1-3.6Z" fill="#c27bb0"/><path d="M24.5 9.2c2.6.6 5.2 2.7 6.3 5.6.4 1.1-.6 1.8-1.6 1.3-1.3-.6-2.6-.2-3.1 1.1-.6 1.6.6 2.6 1.8 3.4 1.5 1 1 3-.7 3.6-1.9.6-3.5 2.4-3.8 4.4-.2 1-1.3 1.3-2 .6-1.4-1.6-1.2-4 .2-5.5 1-1.1.5-2.5-.8-3-1.4-.5-1.6-2.3-.4-3.2 1.3-1 2.3-2.2 2.6-3.8.2-.9.8-1 1.5-.5Z" fill="#c27bb0"/><path d="M30.5 6.5A16.5 16.5 0 1 0 36.6 25" fill="none" stroke="#6fae45" stroke-width="3.2" stroke-linecap="round"/><path d="M28 3.4l5.3 2.4-2.9 5.1" fill="none" stroke="#6fae45" stroke-width="3.2" stroke-linecap="round" stroke-linejoin="round"/></svg>
